SplineFontDB: 3.0
FontName: cpufreq
FullName: cpufreq symbols
FamilyName: cpufreq
Weight: Book
Copyright: 
Version: 1.0
ItalicAngle: 0
UnderlinePosition: 0
UnderlineWidth: 0
Ascent: 800
Descent: 200
sfntRevision: 0x00010000
LayerCount: 2
Layer: 0 1 "Back"  1
Layer: 1 1 "Fore"  0
XUID: [1021 865 155530589 4478411]
FSType: 0
OS2Version: 3
OS2_WeightWidthSlopeOnly: 0
OS2_UseTypoMetrics: 1
CreationTime: 1543525524
ModificationTime: 1544102022
PfmFamily: 81
TTFWeight: 400
TTFWidth: 5
LineGap: 0
VLineGap: 0
Panose: 0 0 0 0 0 0 0 0 0 0
OS2TypoAscent: 938
OS2TypoAOffset: 0
OS2TypoDescent: -62
OS2TypoDOffset: 0
OS2TypoLinegap: 62
OS2WinAscent: 938
OS2WinAOffset: 0
OS2WinDescent: 62
OS2WinDOffset: 0
HheadAscent: 938
HheadAOffset: 0
HheadDescent: -62
HheadDOffset: 0
OS2SubXSize: 649
OS2SubYSize: 699
OS2SubXOff: 0
OS2SubYOff: 140
OS2SupXSize: 649
OS2SupYSize: 699
OS2SupXOff: 0
OS2SupYOff: 479
OS2StrikeYSize: 50
OS2StrikeYPos: 259
OS2Vendor: 'kapa'
OS2CodePages: 00280001.00000000
OS2UnicodeRanges: 00000001.00000000.00000000.00000000
MarkAttachClasses: 1
DEI: 91125
ShortTable: maxp 16
  1
  0
  18
  144
  12
  0
  0
  1
  0
  0
  0
  0
  0
  0
  0
  0
EndShort
LangName: 1033 "" "" "Regular" "cpufreq" "" "Version 1.0" "" "" "konkor" "konkor" 
GaspTable: 1 65535 15 1
Encoding: UnicodeBmp
Compacted: 1
UnicodeInterp: none
NameList: Adobe Glyph List
DisplaySize: -24
AntiAlias: 1
FitToEm: 1
WinInfo: 0 31 25
BeginPrivate: 0
EndPrivate
BeginChars: 65537 26

StartChar: uni21f5
Encoding: 8693 8693 3
Width: 890
GlyphClass: 2
Flags: W
LayerCount: 2
Fore
SplineSet
369 767 m 1,0,1
 369 608 369 608 369 283 c 1,2,3
 411 283 411 283 493 283 c 1,4,5
 269 2 l 1,6,7
 157 142 157 142 45 283 c 1,8,9
 106 283 106 283 166 283 c 1,10,11
 166 441 166 441 166 767 c 1,12,13
 268 767 268 767 369 767 c 1,0,1
845 521 m 1,14,15
 776 521 776 521 706 521 c 1,16,17
 706 350 706 350 706 10 c 1,18,19
 624 10 624 10 542 10 c 1,20,21
 542 183 542 183 542 521 c 1,22,23
 470 521 470 521 397 521 c 1,24,25
 621 795 l 1,26,27
 845 521 l 1,14,15
192 253 m 1,28,29
 148 253 148 253 105 253 c 1,30,31
 269 50 l 1,32,33
 350 152 350 152 432 253 c 1,34,35
 402 253 402 253 342 253 c 1,36,37
 342 411 342 411 342 737 c 1,38,39
 267 737 267 737 192 737 c 1,40,41
 192 578 192 578 192 253 c 1,28,29
EndSplineSet
Validated: 1
EndChar

StartChar: uni26a1
Encoding: 9889 9889 4
Width: 716
GlyphClass: 2
Flags: W
LayerCount: 2
Fore
SplineSet
591 306 m 1,0,1
 397 192 397 192 53 -30 c 1,2,3
 45 -29 45 -29 45 -20 c 0,4,5
 45 -20 45 -20 45 -17 c 1,6,7
 239 148 239 148 389 316 c 1,8,-1
 125 422 l 1,9,10
 353 552 353 552 651 729 c 1,11,12
 654 729 654 729 660 729 c 1,13,14
 671 721 671 721 671 719 c 0,15,16
 671 719 671 719 671 716 c 1,17,18
 455 552 455 552 327 420 c 1,19,20
 591 306 l 1,0,1
EndSplineSet
Validated: 1
EndChar

StartChar: uni3392
Encoding: 13202 13202 5
Width: 1000
GlyphClass: 2
Flags: W
LayerCount: 2
Fore
SplineSet
965 415 m 1,0,-1
 813 58 l 1,1,-1
 960 58 l 1,2,-1
 960 1 l 1,3,-1
 717 1 l 1,4,-1
 868 358 l 1,5,-1
 732 358 l 1,6,-1
 732 415 l 1,7,-1
 965 415 l 1,0,-1
715 1 m 1,8,-1
 648 1 l 1,9,-1
 648 360 l 1,10,-1
 528 360 l 1,11,-1
 528 1 l 1,12,-1
 462 1 l 1,13,-1
 462 701 l 1,14,-1
 528 701 l 1,15,-1
 528 415 l 1,16,-1
 648 415 l 1,17,-1
 648 701 l 1,18,-1
 715 701 l 1,19,-1
 715 1 l 1,8,-1
403 1 m 5,20,-1
 337 1 l 5,21,-1
 337 451 l 5,22,-1
 257 1 l 5,23,-1
 191 1 l 5,24,-1
 111 460 l 5,25,-1
 111 1 l 5,26,-1
 45 1 l 5,27,-1
 45 701 l 5,28,-1
 123 701 l 5,29,-1
 224 132 l 5,30,-1
 328 701 l 5,31,-1
 403 701 l 5,32,-1
 403 1 l 5,20,-1
EndSplineSet
Validated: 1
EndChar

StartChar: uni3393
Encoding: 13203 13203 6
Width: 1000
GlyphClass: 2
Flags: W
LayerCount: 2
Fore
SplineSet
965 414 m 1,0,-1
 813 57 l 1,1,-1
 960 57 l 1,2,-1
 960 0 l 1,3,-1
 717 0 l 1,4,-1
 868 357 l 1,5,-1
 732 357 l 1,6,-1
 732 414 l 1,7,-1
 965 414 l 1,0,-1
715 0 m 1,8,-1
 648 0 l 1,9,-1
 648 359 l 1,10,-1
 528 359 l 1,11,-1
 528 0 l 1,12,-1
 462 0 l 1,13,-1
 462 700 l 1,14,-1
 528 700 l 1,15,-1
 528 414 l 1,16,-1
 648 414 l 1,17,-1
 648 700 l 1,18,-1
 715 700 l 1,19,-1
 715 0 l 1,8,-1
410 306 m 1,20,-1
 369 306 l 1,21,-1
 369 -18 l 1,22,-1
 293 -18 l 1,23,-1
 293 25 l 1,24,25
 257 -16 257 -16 193 -16 c 0,26,27
 148 -16 148 -16 112 2 c 0,28,29
 78 19 78 19 63 54 c 0,30,31
 52 80 52 80 52 111 c 2,32,-1
 52 578 l 2,33,34
 52 644 52 644 122 687 c 0,35,36
 156 708 156 708 203 708 c 0,37,38
 310 708 310 708 353 626 c 1,39,40
 374 587 374 587 374 537 c 1,41,-1
 301 537 l 1,42,43
 301 607 301 607 267 634 c 0,44,45
 244 652 244 652 216 652 c 0,46,47
 215 652 215 652 213 652 c 0,48,49
 159 652 159 652 136 601 c 0,50,51
 127 581 127 581 127 560 c 2,52,-1
 127 119 l 2,53,54
 127 60 127 60 176 45 c 0,55,56
 189 41 189 41 202 41 c 0,57,58
 219 41 219 41 234 49 c 0,59,60
 252 58 252 58 269 75 c 0,61,62
 293 97 293 97 293 120 c 2,63,-1
 293 306 l 1,64,-1
 236 306 l 1,65,-1
 236 372 l 1,66,-1
 410 372 l 1,67,-1
 410 306 l 1,20,-1
EndSplineSet
Validated: 1
EndChar

StartChar: unie952
Encoding: 59730 59730 7
Width: 826
GlyphClass: 2
Flags: W
LayerCount: 2
Fore
SplineSet
441 639 m 1,0,1
 512 634 512 634 575 603 c 0,2,3
 634 574 634 574 681 523 c 0,4,5
 727 473 727 473 753 409 c 0,6,7
 781 340 781 340 781 285 c 0,8,9
 781 283 781 283 781 281 c 0,10,11
 781 214 781 214 751 145 c 0,12,13
 723 78 723 78 672 28 c 1,14,15
 623 -22 623 -22 556 -50 c 0,16,17
 489 -79 489 -79 413 -79 c 0,18,19
 336 -79 336 -79 270 -50 c 1,20,21
 203 -22 203 -22 152 28 c 1,22,23
 103 78 103 78 75 145 c 0,24,25
 45 217 45 217 45 277 c 0,26,27
 45 279 45 279 45 281 c 0,28,29
 45 343 45 343 72 409 c 0,30,31
 98 474 98 474 143 523 c 0,32,33
 187 571 187 571 251 603 c 0,34,35
 313 634 313 634 384 639 c 1,36,37
 384 671 384 671 384 685 c 1,38,39
 309 685 309 685 271 685 c 1,40,41
 271 722 271 722 271 741 c 0,42,43
 271 764 271 764 288 781 c 256,44,45
 305 798 305 798 328 798 c 0,46,47
 441 798 441 798 498 798 c 0,48,49
 522 798 522 798 538 781 c 128,-1,50
 554 764 554 764 554 741 c 0,51,52
 554 704 554 704 554 685 c 1,53,54
 479 685 479 685 441 685 c 1,55,56
 441 675 441 675 441 639 c 1,0,1
613 89 m 256,57,58
 653 129 653 129 674 179 c 0,59,60
 696 232 696 232 696 277 c 0,61,62
 696 279 696 279 696 281 c 0,63,64
 696 327 696 327 674 380 c 0,65,66
 653 433 653 433 613 472 c 1,67,68
 575 512 575 512 525 533 c 0,69,70
 475 553 475 553 421 555 c 1,71,72
 437 379 437 379 441 286 c 0,73,74
 442 268 442 268 434 260 c 256,75,76
 426 252 426 252 413 252 c 128,-1,77
 400 252 400 252 392 260 c 0,78,79
 383 268 383 268 384 286 c 0,80,81
 393 463 393 463 404 555 c 1,82,83
 350 554 350 554 300 533 c 1,84,85
 251 511 251 511 213 472 c 1,86,87
 172 433 172 433 151 380 c 128,-1,88
 130 327 130 327 130 281 c 0,89,90
 130 232 130 232 151 179 c 1,91,92
 172 129 172 129 213 89 c 1,93,94
 252 48 252 48 304 27 c 256,95,96
 356 6 356 6 413 6 c 0,97,98
 469 6 469 6 521 27 c 0,99,100
 573 49 573 49 613 89 c 256,57,58
EndSplineSet
Validated: 1
EndChar

StartChar: unie953
Encoding: 59731 59731 8
Width: 1000
GlyphClass: 2
Flags: W
LayerCount: 2
Fore
SplineSet
345 506 m 1,0,1
 408 506 408 506 471 506 c 1,2,3
 471 472 471 472 471 404 c 1,4,5
 408 404 408 404 345 404 c 1,6,7
 345 439 345 439 345 506 c 1,0,1
528 506 m 1,8,9
 591 506 591 506 654 506 c 1,10,11
 654 472 654 472 654 404 c 1,12,13
 591 404 591 404 528 404 c 1,14,15
 528 439 528 439 528 506 c 1,8,9
711 506 m 1,16,17
 775 506 775 506 839 506 c 1,18,19
 839 472 839 472 839 404 c 1,20,21
 775 404 775 404 711 404 c 1,22,23
 711 439 711 439 711 506 c 1,16,17
160 204 m 1,24,25
 224 204 224 204 288 204 c 1,26,27
 288 170 288 170 288 102 c 1,28,29
 224 102 224 102 160 102 c 1,30,31
 160 137 160 137 160 204 c 1,24,25
345 204 m 1,32,33
 408 204 408 204 471 204 c 1,34,35
 471 170 471 170 471 102 c 1,36,37
 408 102 408 102 345 102 c 1,38,39
 345 137 345 137 345 204 c 1,32,33
528 204 m 1,40,41
 591 204 591 204 654 204 c 1,42,43
 654 170 654 170 654 102 c 1,44,45
 591 102 591 102 528 102 c 1,46,47
 528 137 528 137 528 204 c 1,40,41
345 354 m 1,48,49
 408 354 408 354 471 354 c 1,50,51
 471 320 471 320 471 253 c 1,52,53
 408 253 408 253 345 253 c 1,54,55
 345 287 345 287 345 354 c 1,48,49
528 354 m 1,56,57
 591 354 591 354 654 354 c 1,58,59
 654 320 654 320 654 253 c 1,60,61
 591 253 591 253 528 253 c 1,62,63
 528 287 528 287 528 354 c 1,56,57
711 354 m 1,64,65
 775 354 775 354 839 354 c 1,66,67
 839 320 839 320 839 253 c 1,68,69
 775 253 775 253 711 253 c 1,70,71
 711 287 711 287 711 354 c 1,64,65
160 354 m 1,72,73
 224 354 224 354 288 354 c 1,74,75
 288 320 288 320 288 253 c 1,76,77
 224 253 224 253 160 253 c 1,78,79
 160 287 160 287 160 354 c 1,72,73
839 797 m 1,80,81
 897 797 897 797 955 797 c 1,82,83
 955 268 955 268 955 3 c 1,84,85
 500 3 500 3 45 3 c 1,86,87
 45 532 45 532 45 797 c 1,88,89
 102 797 102 797 160 797 c 1,90,91
 160 765 160 765 160 748 c 1,92,93
 224 748 224 748 288 748 c 1,94,95
 288 780 288 780 288 797 c 1,96,97
 500 797 500 797 711 797 c 1,98,99
 711 765 711 765 711 748 c 1,100,101
 775 748 775 748 839 748 c 1,102,103
 839 780 839 780 839 797 c 1,80,81
896 52 m 1,104,105
 896 416 896 416 896 598 c 1,106,107
 500 598 500 598 103 598 c 1,108,109
 103 235 103 235 103 52 c 1,110,111
 500 52 500 52 896 52 c 1,104,105
EndSplineSet
Validated: 1
EndChar

StartChar: unie976
Encoding: 59766 59766 9
Width: 788
GlyphClass: 2
Flags: W
LayerCount: 2
Fore
SplineSet
394 797 m 0,0,1
 482 797 482 797 542 738 c 1,2,3
 603 680 603 680 603 600 c 0,4,5
 603 598 603 598 603 597 c 0,6,7
 603 513 603 513 543 457 c 0,8,9
 511 427 511 427 472 412 c 0,10,11
 436 398 436 398 394 398 c 0,12,13
 309 398 309 398 247 458 c 1,14,15
 185 515 185 515 184 597 c 0,16,17
 184 679 184 679 246 738 c 128,-1,18
 308 797 308 797 394 797 c 0,0,1
389 26 m 1,19,-1
 533 324 l 0,20,21
 575 403 575 403 604 426 c 1,22,23
 628 426 628 426 653 408 c 0,24,25
 688 383 688 383 708 337 c 0,26,27
 728 293 728 293 735 244 c 1,28,29
 743 196 743 196 743 140 c 256,30,31
 743 84 743 84 709 43 c 0,32,33
 675 3 675 3 627 3 c 0,34,35
 395 3 395 3 163 3 c 0,36,37
 113 3 113 3 80 43 c 256,38,39
 45 85 45 85 45 140 c 0,40,41
 45 145 45 145 45 149 c 0,42,43
 45 199 45 199 53 245 c 0,44,45
 62 292 62 292 82 337 c 0,46,47
 101 382 101 382 117 404 c 128,-1,48
 133 426 133 426 183 426 c 1,49,50
 206 394 206 394 237 321 c 0,51,52
 389 26 l 1,19,-1
387 129 m 1,53,54
 330 298 l 1,55,56
 331 320 331 320 343 338.5 c 128,-1,57
 355 357 355 357 387 361 c 1,58,59
 412 358 412 358 429 336 c 0,60,61
 446 315 446 315 448 298 c 1,62,-1
 387 129 l 1,53,54
EndSplineSet
Validated: 1
EndChar

StartChar: unif007
Encoding: 61447 61447 10
Width: 752
GlyphClass: 2
Flags: W
LayerCount: 2
Fore
SplineSet
707 139 m 0,0,1
 707 83 707 83 674 43 c 0,2,3
 642 3 642 3 597 3 c 0,4,5
 450 3 450 3 156 3 c 0,6,7
 111 3 111 3 79 43 c 0,8,9
 46 84 46 84 45 139 c 0,10,11
 45 191 45 191 53 243 c 0,12,13
 60 295 60 295 79 337 c 0,14,15
 99 380 99 380 131 406 c 0,16,17
 164 432 164 432 214 432 c 1,18,19
 246 403 246 403 287 384 c 1,20,21
 327 367 327 367 371 367 c 0,22,23
 373 367 373 367 376 367 c 0,24,25
 423 367 423 367 465 384 c 1,26,27
 506 403 506 403 539 432 c 1,28,29
 590 432 590 432 622 406 c 256,30,31
 654 380 654 380 673 337 c 0,32,33
 692 295 692 295 700 243 c 0,34,35
 707 191 707 191 707 139 c 0,0,1
575 598 m 256,36,37
 575 557 575 557 559 521 c 256,38,39
 543 485 543 485 517 458 c 0,40,41
 490 431 490 431 454 416 c 0,42,43
 450 414 450 414 445 412 c 0,44,45
 413 400 413 400 376 400 c 0,46,47
 335 400 335 400 298 416 c 0,48,49
 262 431 262 431 236 458 c 256,50,51
 210 485 210 485 194 521 c 0,52,53
 177 557 177 557 177 598 c 256,54,55
 177 639 177 639 194 675 c 0,56,57
 210 711 210 711 236 738 c 128,-1,58
 262 765 262 765 298 781 c 0,59,60
 335 797 335 797 376 797 c 256,61,62
 417 797 417 797 454 781 c 0,63,64
 490 765 490 765 517 738 c 0,65,66
 543 712 543 712 559 675 c 0,67,68
 575 639 575 639 575 598 c 256,36,37
EndSplineSet
Validated: 1
EndChar

StartChar: unif06c
Encoding: 61548 61548 11
Width: 1000
GlyphClass: 2
Flags: W
LayerCount: 2
Fore
SplineSet
706 450 m 0,0,1
 706 468 706 468 684 488 c 1,2,3
 676 500 676 500 663 500 c 0,4,5
 659 500 659 500 656 500 c 128,-1,6
 653 500 653 500 650 500 c 128,-1,7
 647 500 647 500 644 500 c 0,8,9
 595 500 595 500 539 484 c 1,10,11
 480 466 480 466 432 435 c 0,12,13
 378 401 378 401 338 360 c 0,14,15
 293 314 293 314 249 258 c 1,16,17
 242 245 242 245 241 244 c 1,18,19
 241 240 241 240 239 230 c 0,20,21
 234 207 234 207 235 201 c 0,22,23
 236 193 236 193 237 190 c 0,24,25
 245 166 245 166 267 166 c 0,26,27
 269 166 269 166 272 166 c 0,28,29
 280 166 280 166 284 169 c 0,30,31
 287 171 287 171 295 178 c 0,32,33
 301 183 301 183 330 218 c 0,34,35
 358 251 358 251 366 260 c 0,36,37
 401 299 401 299 434 323 c 0,38,39
 467 348 467 348 501 364 c 0,40,41
 528 377 528 377 577 389 c 0,42,43
 614 398 614 398 663 398 c 0,44,45
 665 398 665 398 684 409 c 0,46,47
 706 421 706 421 706 450 c 0,0,1
956 568 m 0,48,49
 956 534 956 534 953 509 c 0,50,51
 947 458 947 458 946 452 c 0,52,53
 933 385 933 385 908 323 c 0,54,55
 884 262 884 262 849 216 c 0,56,57
 812 167 812 167 767 130 c 1,58,59
 722 90 722 90 671 59 c 0,60,61
 621 28 621 28 562 11 c 0,62,63
 504 -6 504 -6 448 -6 c 0,64,65
 408 -6 408 -6 373 1 c 256,66,67
 338 8 338 8 302 23 c 1,68,69
 284 29 284 29 253 49 c 1,70,71
 224 70 224 70 207 71 c 1,72,73
 207 71 207 71 206 71 c 2,74,75
 206 71 206 71 205 71 c 2,76,77
 205 71 205 71 204 71 c 0,78,79
 187 71 187 71 165 9 c 256,80,81
 143 -53 143 -53 107 -53 c 0,82,83
 83 -53 83 -53 73 -41 c 0,84,85
 71 -39 71 -39 53 -7 c 0,86,87
 49 0 49 0 46 5 c 0,88,89
 44 9 44 9 44 20 c 0,90,91
 45 67 45 67 94 103 c 0,92,93
 145 140 145 140 145 167 c 0,94,95
 145 172 145 172 138 189 c 0,96,97
 132 204 132 204 130 216 c 0,98,99
 126 243 126 243 126 247 c 0,100,101
 125 259 125 259 125 279 c 0,102,103
 125 282 125 282 125 285 c 128,-1,104
 125 288 125 288 125 290 c 256,105,106
 125 292 125 292 125 295 c 0,107,108
 125 353 125 353 147 412 c 0,109,110
 171 477 171 477 207 523 c 0,111,112
 244 570 244 570 294 606 c 0,113,114
 345 642 345 642 399 664 c 0,115,116
 439 680 439 680 495 681 c 1,117,118
 495 681 495 681 609 686 c 0,119,120
 661 688 661 688 718 698 c 0,121,122
 770 707 770 707 795 738 c 1,123,124
 823 767 823 767 832 778 c 0,125,126
 848 797 848 797 880 797 c 0,127,128
 903 797 903 797 916 767 c 0,129,130
 934 727 934 727 940 702 c 0,131,132
 947 675 947 675 953 626 c 1,133,134
 956 588 956 588 956 568 c 0,48,49
EndSplineSet
Validated: 1
EndChar

StartChar: unif071
Encoding: 61553 61553 12
Width: 946
GlyphClass: 2
Flags: W
LayerCount: 2
Fore
SplineSet
473 794 m 0,0,1
 507 794 507 794 519 775 c 1,2,-1
 893 93 l 1,3,4
 900 74 900 74 900 59 c 0,5,6
 900 15 900 15 841 0 c 1,7,-1
 104 -0 l 1,8,9
 64 6 64 6 50 31 c 0,10,11
 44 42 44 42 44 56 c 0,12,13
 44 73 44 73 53 93 c 1,14,15
 408 743 408 743 426 775 c 1,16,17
 440 794 440 794 473 794 c 0,0,1
419 528 m 2,18,19
 411 528 411 528 408 524 c 0,20,21
 404 519 404 519 404 513 c 2,22,-1
 412 313 l 2,23,24
 412 307 412 307 416 303 c 0,25,26
 421 298 421 298 427 298 c 2,27,-1
 517 298 l 2,28,29
 523 298 523 298 527 302 c 0,30,31
 532 307 532 307 532 313 c 2,32,-1
 540 513 l 2,33,34
 540 521 540 521 536 524 c 0,35,36
 531 528 531 528 525 528 c 2,37,-1
 419 528 l 2,18,19
427 248 m 2,38,39
 419 248 419 248 416 244 c 0,40,41
 412 239 412 239 412 233 c 2,42,-1
 412 143 l 2,43,44
 412 135 412 135 416 132 c 0,45,46
 421 128 421 128 427 128 c 2,47,-1
 517 128 l 2,48,49
 525 128 525 128 528 132 c 0,50,51
 532 137 532 137 532 143 c 2,52,-1
 532 233 l 2,53,54
 532 241 532 241 528 244 c 0,55,56
 523 248 523 248 517 248 c 2,57,-1
 427 248 l 2,38,39
EndSplineSet
Validated: 1
EndChar

StartChar: unif0e7
Encoding: 61671 61671 13
Width: 716
GlyphClass: 2
Flags: W
LayerCount: 2
Fore
SplineSet
591 306 m 1,0,1
 397 192 397 192 53 -30 c 1,2,3
 45 -29 45 -29 45 -20 c 0,4,5
 45 -20 45 -20 45 -17 c 1,6,7
 239 148 239 148 389 316 c 1,8,-1
 125 422 l 1,9,10
 353 552 353 552 651 729 c 1,11,12
 654 729 654 729 660 729 c 1,13,14
 671 721 671 721 671 719 c 0,15,16
 671 719 671 719 671 716 c 1,17,18
 455 552 455 552 327 420 c 1,19,20
 591 306 l 1,0,1
EndSplineSet
Validated: 1
EndChar

StartChar: unif118
Encoding: 61720 61720 14
Width: 884
GlyphClass: 2
Flags: W
LayerCount: 2
Fore
SplineSet
631 308 m 0,0,1
 612 246 612 246 560 208 c 0,2,3
 507 170 507 170 442 170 c 256,4,5
 377 170 377 170 323 208 c 1,6,7
 271 247 271 247 253 308 c 1,8,9
 248 321 248 321 255 333 c 1,10,11
 261 346 261 346 275 349 c 1,12,13
 288 354 288 354 299 347 c 1,14,15
 312 341 312 341 316 328 c 0,16,17
 330 286 330 286 363 260 c 1,18,19
 398 235 398 235 442 235 c 128,-1,20
 486 235 486 235 520 260 c 0,21,22
 555 285 555 285 568 328 c 0,23,24
 573 342 573 342 584 347 c 0,25,26
 597 354 597 354 611 349 c 0,27,28
 624 345 624 345 629 333 c 1,29,30
 636 321 636 321 631 308 c 0,0,1
310 599 m 0,31,32
 337 599 337 599 357 580 c 0,33,34
 376 562 376 562 376 533 c 0,35,36
 376 506 376 506 357 486 c 0,37,38
 337 466 337 466 310 466 c 256,39,40
 283 466 283 466 262 486 c 1,41,42
 243 506 243 506 243 533 c 0,43,44
 243 538 243 538 244 543 c 0,45,46
 249 568 249 568 267 584 c 0,47,48
 284 599 284 599 304 599 c 0,49,50
 306 599 306 599 307 599 c 128,-1,51
 308 599 308 599 310 599 c 0,31,32
527 580 m 0,52,53
 545 599 545 599 571 599 c 0,54,55
 572 599 572 599 574 599 c 0,56,57
 601 599 601 599 621 580 c 0,58,59
 640 561 640 561 640 533 c 128,-1,60
 640 505 640 505 621 486 c 0,61,62
 601 466 601 466 574 466 c 256,63,64
 549 466 549 466 527 486 c 256,65,66
 507 504 507 504 507 530 c 0,67,68
 507 531 507 531 507 532 c 0,69,70
 507 559 507 559 527 580 c 0,52,53
773 401 m 0,71,72
 773 468 773 468 747 529 c 128,-1,73
 721 590 721 590 675 634 c 1,74,75
 631 679 631 679 570 706 c 0,76,77
 509 732 509 732 442 732 c 0,78,79
 374 732 374 732 314 706 c 0,80,81
 253 680 253 680 208 634 c 0,82,83
 163 589 163 589 137 529 c 1,84,85
 112 468 112 468 111 401 c 1,86,87
 111 333 111 333 137 272 c 128,-1,88
 163 211 163 211 208 167 c 128,-1,89
 253 123 253 123 314 96 c 0,90,91
 374 70 374 70 442 70 c 256,92,93
 510 70 510 70 570 96 c 0,94,95
 631 122 631 122 675 167 c 1,96,97
 721 212 721 212 747 272 c 0,98,99
 773 333 773 333 773 401 c 0,71,72
839 401 m 256,100,101
 839 319 839 319 808 247 c 0,102,103
 777 174 777 174 723 120 c 256,104,105
 669 66 669 66 597 36 c 1,106,107
 525 4 525 4 442 4 c 0,108,109
 360 4 360 4 287 36 c 1,110,111
 215 66 215 66 160 120 c 1,112,113
 107 174 107 174 75 247 c 1,114,115
 45 319 45 319 45 401 c 256,116,117
 45 483 45 483 75 555 c 1,118,119
 107 627 107 627 160 681 c 0,120,121
 215 736 215 736 287 766 c 0,122,123
 359 797 359 797 442 798 c 0,124,125
 525 798 525 798 597 766 c 1,126,127
 669 736 669 736 723 681 c 0,128,129
 777 627 777 627 808 555 c 256,130,131
 839 483 839 483 839 401 c 256,100,101
EndSplineSet
Validated: 1
EndChar

StartChar: unif119
Encoding: 61721 61721 15
Width: 885
GlyphClass: 2
Flags: W
LayerCount: 2
Fore
SplineSet
632 227 m 0,0,1
 636 213 636 213 630 202 c 0,2,3
 623 190 623 190 610 185 c 1,4,5
 596 181 596 181 584 187 c 0,6,7
 572 194 572 194 568 208 c 0,8,9
 555 249 555 249 521 274 c 0,10,11
 486 299 486 299 443 299 c 256,12,13
 400 299 400 299 363 274 c 1,14,15
 329 249 329 249 316 208 c 1,16,17
 313 194 313 194 300 187 c 0,18,19
 288 181 288 181 276 185 c 0,20,21
 262 190 262 190 255 202 c 0,22,23
 249 214 249 214 253 227 c 0,24,25
 273 289 273 289 324 328 c 1,26,27
 376 366 376 366 443 366 c 0,28,29
 508 366 508 366 560 328 c 0,30,31
 612 289 612 289 632 227 c 0,0,1
376 531 m 0,32,33
 376 504 376 504 357 484 c 128,-1,34
 338 464 338 464 311 464 c 0,35,36
 283 464 283 464 263 484 c 256,37,38
 243 504 243 504 243 531 c 128,-1,39
 243 558 243 558 263 578 c 0,40,41
 282 597 282 597 308 597 c 0,42,43
 310 597 310 597 311 597 c 0,44,45
 338 597 338 597 357 578 c 128,-1,46
 376 559 376 559 376 531 c 0,32,33
641 531 m 0,47,48
 641 504 641 504 621 484 c 0,49,50
 602 464 602 464 574 464 c 128,-1,51
 546 464 546 464 527 484 c 0,52,53
 509 503 509 503 509 528 c 0,54,55
 509 530 509 530 509 531 c 1,56,57
 509 560 509 560 527 578 c 0,58,59
 546 597 546 597 571 597 c 0,60,61
 573 597 573 597 574 597 c 1,62,63
 602 597 602 597 621 578 c 0,64,65
 641 559 641 559 641 531 c 0,47,48
774 399 m 0,66,67
 774 466 774 466 747 527 c 0,68,69
 721 588 721 588 676 632 c 1,70,71
 632 677 632 677 571 704 c 1,72,73
 509 730 509 730 443 730 c 0,74,75
 375 730 375 730 315 704 c 0,76,77
 253 678 253 678 208 632 c 0,78,79
 164 587 164 587 138 527 c 0,80,81
 112 466 112 466 111 399 c 1,82,83
 111 331 111 331 138 270 c 0,84,85
 164 209 164 209 208 165 c 0,86,87
 253 121 253 121 315 94 c 0,88,89
 375 68 375 68 443 68 c 0,90,91
 510 68 510 68 571 94 c 128,-1,92
 632 120 632 120 676 165 c 0,93,94
 721 210 721 210 747 270 c 0,95,96
 774 331 774 331 774 399 c 0,66,67
840 399 m 256,97,98
 840 317 840 317 808 245 c 1,99,100
 778 172 778 172 723 118 c 0,101,102
 669 64 669 64 597 34 c 1,103,104
 525 2 525 2 443 2 c 256,105,106
 361 2 361 2 288 34 c 1,107,108
 216 64 216 64 161 118 c 0,109,110
 107 172 107 172 76 245 c 0,111,112
 45 317 45 317 45 399 c 256,113,114
 45 481 45 481 76 553 c 256,115,116
 107 625 107 625 161 679 c 0,117,118
 216 734 216 734 288 764 c 0,119,120
 360 795 360 795 443 796 c 0,121,122
 525 796 525 796 597 764 c 1,123,124
 669 734 669 734 723 679 c 1,125,126
 778 625 778 625 808 553 c 1,127,128
 840 481 840 481 840 399 c 256,97,98
EndSplineSet
Validated: 1
EndChar

StartChar: unif11a
Encoding: 61722 61722 16
Width: 884
GlyphClass: 2
Flags: W
LayerCount: 2
Fore
SplineSet
640 300 m 256,0,1
 640 286 640 286 630 277 c 0,2,3
 621 268 621 268 608 268 c 0,4,5
 498 268 498 268 277 268 c 0,6,7
 263 268 263 268 253 277 c 0,8,9
 243 287 243 287 243 300 c 0,10,11
 243 314 243 314 253 324 c 256,12,13
 263 334 263 334 277 334 c 0,14,15
 387 334 387 334 608 334 c 0,16,17
 622 334 622 334 630 324 c 1,18,19
 640 314 640 314 640 300 c 256,0,1
376 532 m 0,20,21
 376 505 376 505 357 485 c 0,22,23
 337 465 337 465 310 465 c 256,24,25
 283 465 283 465 262 485 c 1,26,27
 243 505 243 505 243 532 c 0,28,29
 243 560 243 560 262 579 c 0,30,31
 282 598.048 282 598.048 307.442 598.048 c 0,32,33
 308.714 598.048 308.714 598.048 310 598 c 0,34,35
 337 598 337 598 357 579 c 0,36,37
 376 560 376 560 376 532 c 0,20,21
640 532 m 0,38,39
 640 505 640 505 621 485 c 0,40,41
 601 465 601 465 574 465 c 256,42,43
 547 465 547 465 527 485 c 256,44,45
 507.952 504.048 507.952 504.048 507.952 529.444 c 0,46,47
 507.952 530.714 507.952 530.714 508 532 c 129,-1,48
 507.952 533.333 507.952 533.333 507.952 534.646 c 0,49,50
 507.952 560.905 507.952 560.905 527 579 c 0,51,52
 546.048 598.048 546.048 598.048 571.444 598.048 c 0,53,54
 572.714 598.048 572.714 598.048 574 598 c 0,55,56
 601 598 601 598 621 579 c 0,57,58
 640 560 640 560 640 532 c 0,38,39
773 400 m 0,59,60
 773 467 773 467 747 528 c 128,-1,61
 721 589 721 589 675 633 c 1,62,63
 631 678 631 678 570 705 c 0,64,65
 509 731 509 731 442 731 c 0,66,67
 374 731 374 731 314 705 c 0,68,69
 253 679 253 679 208 633 c 0,70,71
 163 588 163 588 137 528 c 1,72,73
 112 467 112 467 111 400 c 1,74,75
 111 332 111 332 137 271 c 128,-1,76
 163 210 163 210 208 166 c 128,-1,77
 253 122 253 122 314 95 c 0,78,79
 374 69 374 69 442 69 c 256,80,81
 510 69 510 69 570 95 c 0,82,83
 631 121 631 121 675 166 c 1,84,85
 721 211 721 211 747 271 c 0,86,87
 773 332 773 332 773 400 c 0,59,60
839 400 m 256,88,89
 839 318 839 318 808 246 c 0,90,91
 777 173 777 173 723 119 c 256,92,93
 669 65 669 65 597 35 c 1,94,95
 525 3 525 3 442 3 c 0,96,97
 360 3 360 3 287 35 c 1,98,99
 215 65 215 65 160 119 c 1,100,101
 107 173 107 173 75 246 c 1,102,103
 45 318 45 318 45 400 c 256,104,105
 45 482 45 482 75 554 c 1,106,107
 107 626 107 626 160 680 c 0,108,109
 215 735 215 735 287 765 c 0,110,111
 359 796 359 796 442 797 c 0,112,113
 525 797 525 797 597 765 c 1,114,115
 669 735 669 735 723 680 c 0,116,117
 777 626 777 626 808 554 c 256,118,119
 839 482 839 482 839 400 c 256,88,89
EndSplineSet
Validated: 1
EndChar

StartChar: unif197
Encoding: 61847 61847 17
Width: 1024
GlyphClass: 2
Flags: W
LayerCount: 2
Fore
SplineSet
169 439 m 0,0,1
 206 439 206 439 226 434 c 0,2,3
 267 424 267 424 297 408 c 1,4,-1
 792 408 l 2,5,6
 803 408 803 408 859 396 c 128,-1,7
 915 384 915 384 944 373 c 1,8,9
 963 364 963 364 974 353 c 0,10,11
 988 339 988 339 988 332 c 0,12,13
 988 324 988 324 974 311 c 128,-1,14
 960 298 960 298 944 290 c 1,15,16
 910 277 910 277 859 267 c 0,17,18
 803 256 803 256 792 256 c 2,19,-1
 297 256 l 1,20,21
 262 237 262 237 226 230 c 0,22,23
 204 226 204 226 157 226 c 0,24,25
 151 226 151 226 142 226 c 0,26,27
 134 226 134 226 122 226 c 1,28,-1
 122 257 l 1,29,-1
 93 255 l 1,30,31
 79 270 79 270 79 292 c 0,32,33
 79 304 79 304 83 317 c 1,34,35
 77 318 77 318 60 319 c 0,36,37
 38 322 38 322 33 323 c 0,38,39
 24 326 24 326 23 332 c 1,40,41
 24 339 24 339 33 341 c 128,-1,42
 42 343 42 343 60 344 c 0,43,44
 77 345 77 345 83 346 c 1,45,46
 79 360 79 360 79 371 c 0,47,48
 80 394 80 394 93 409 c 1,49,-1
 122 407 l 1,50,-1
 122 438 l 1,51,52
 164 439 164 439 169 439 c 0,0,1
774 290 m 1,53,-1
 831 275 l 1,54,55
 859 298 859 298 860 332 c 1,56,57
 859 366 859 366 831 389 c 1,58,-1
 774 375 l 1,59,60
 795 343 795 343 796 331 c 0,61,-1
 796 330 l 0,62,63
 796 318 796 318 774 290 c 1,53,-1
168 486 m 1,64,-1
 208 663 l 1,65,-1
 266 661 l 1,66,67
 302 649 302 649 334 622 c 0,68,69
 369 593 369 593 387 568 c 0,70,71
 407 541 407 541 437 510 c 0,72,73
 466 480 466 480 495 463 c 1,74,75
 546 442 546 442 635 436 c 0,76,77
 727 430 727 430 750 426 c 1,78,-1
 300 455 l 1,79,80
 250 486 250 486 191 486 c 0,81,82
 186 486 186 486 180 486 c 128,-1,83
 174 486 174 486 168 486 c 1,64,-1
300 209 m 1,84,-1
 750 238 l 1,85,86
 727 234 727 234 635 227 c 128,-1,87
 543 220 543 220 495 201 c 1,88,89
 471 187 471 187 437 153 c 128,-1,90
 403 119 403 119 386 96 c 0,91,92
 368 72 368 72 334 42 c 0,93,94
 302 14 302 14 266 2 c 1,95,-1
 208 1 l 1,96,-1
 168 178 l 1,97,98
 174 178 174 178 180 178 c 0,99,100
 188 178 188 178 222 181 c 0,101,102
 250 184 250 184 300 209 c 1,84,-1
EndSplineSet
Validated: 1
EndChar

StartChar: uni2603
Encoding: 9731 9731 19
Width: 887
VWidth: 0
Flags: W
LayerCount: 2
Fore
SplineSet
190 116 m 1,0,1
 188 114 188 114 174 103 c 0,2,3
 157 87 157 87 146 80 c 0,4,5
 144 79 144 79 113 61 c 0,6,7
 99 53 99 53 87 53 c 0,8,9
 83 53 83 53 80 54 c 0,10,11
 62 60 62 60 54 73 c 1,12,13
 49 87 49 87 48 97 c 0,14,15
 47 105 47 105 54 115 c 0,16,17
 59 123 59 123 70 131 c 0,18,19
 77 137 77 137 92 144 c 0,20,21
 106 151 106 151 117 155 c 0,22,23
 128 160 128 160 141 165 c 128,-1,24
 154 170 154 170 160 174 c 1,25,26
 147 184 147 184 116 200 c 0,27,28
 88 215 88 215 72 231 c 0,29,30
 59 244 59 244 69 260 c 0,31,32
 76 272 76 272 89 275 c 128,-1,33
 102 278 102 278 118 270 c 0,34,35
 141 258 141 258 149 253 c 0,36,37
 172 237 172 237 185 227 c 0,38,39
 207 210 207 210 217 203 c 1,40,-1
 367 299 l 1,41,-1
 229 391 l 1,42,43
 205 373 205 373 196 367 c 0,44,45
 184 359 184 359 165 347 c 0,46,47
 147 335 147 335 134 329 c 128,-1,48
 121 323 121 323 107 319 c 0,49,50
 91 315 91 315 83 317 c 0,51,52
 74 320 74 320 67 328 c 0,53,54
 54 342 54 342 68 358 c 128,-1,55
 82 374 82 374 117 394 c 0,56,57
 154 415 154 415 163 422 c 1,58,59
 150 429 150 429 141 432 c 0,60,61
 128 437 128 437 117 441 c 0,62,63
 95 450 95 450 91 452 c 0,64,65
 78 458 78 458 70 464 c 0,66,67
 61 469 61 469 54 477 c 0,68,69
 46 486 46 486 47 495 c 0,70,71
 48 503 48 503 53 515 c 1,72,73
 63 533 63 533 74 536 c 0,74,75
 88 540 88 540 102 535 c 0,76,77
 120 528 120 528 129 522 c 0,78,79
 140 515 140 515 156 503 c 128,-1,80
 172 491 172 491 179 487 c 1,81,82
 182 512 182 512 182 516 c 0,83,84
 183 537 183 537 185 549 c 128,-1,85
 187 561 187 561 191 575 c 0,86,87
 194 591 194 591 202 597 c 128,-1,88
 210 603 210 603 222 602 c 0,89,90
 233 601 233 601 239 596 c 0,91,92
 244 592 244 592 248 581 c 128,-1,93
 252 570 252 570 253 562 c 0,94,95
 254 550 254 550 253 538 c 0,96,97
 251 521 251 521 250 512 c 0,98,99
 247 490 247 490 246 483 c 0,100,101
 243 466 243 466 242 455 c 1,102,-1
 403 368 l 1,103,-1
 415 530 l 1,104,105
 408 533 408 533 393 539 c 0,106,107
 370 550 370 550 369 550 c 0,108,109
 357 554 357 554 347 559 c 0,110,111
 333 566 333 566 325 571 c 128,-1,112
 317 576 317 576 307 582 c 0,113,114
 297 589 297 589 292 595 c 0,115,116
 286 602 286 602 283 608 c 0,117,118
 278 618 278 618 279 624 c 128,-1,119
 280 630 280 630 284 639 c 0,120,121
 289 650 289 650 300 653 c 128,-1,122
 311 656 311 656 326 650 c 0,123,124
 351 640 351 640 355 638 c 0,125,126
 368 632 368 632 385 621 c 0,127,128
 398 613 398 613 411 607 c 1,129,130
 411 623 411 623 408 646 c 128,-1,131
 405 669 405 669 404 684 c 0,132,133
 403 694 403 694 404 714 c 0,134,135
 405 730 405 730 414 737 c 0,136,137
 424 745 424 745 442 745 c 128,-1,138
 460 745 460 745 470 737 c 0,139,140
 479 730 479 730 481 714 c 0,141,142
 482 706 482 706 482 682 c 0,143,144
 482 667 482 667 480 645 c 128,-1,145
 478 623 478 623 478 610 c 1,146,147
 493 617 493 617 508 626 c 0,148,149
 526 637 526 637 541 645 c 0,150,151
 545 647 545 647 572 660 c 0,152,153
 588 668 588 668 599 665 c 0,154,155
 612 662 612 662 618 650 c 0,156,157
 623 640 623 640 623 633 c 128,-1,158
 623 626 623 626 618 617 c 0,159,160
 611 605 611 605 608 602 c 0,161,162
 606 600 606 600 590 588 c 0,163,164
 586 585 586 585 570 576 c 0,165,166
 558 567 558 567 547 563 c 0,167,168
 537 559 537 559 523 553 c 0,169,170
 514 549 514 549 499 543 c 0,171,172
 489 539 489 539 475 533 c 1,173,-1
 487 368 l 1,174,-1
 644 448 l 1,175,176
 643 458 643 458 640 476 c 0,177,178
 635 506 635 506 635 506 c 0,179,180
 634 518 634 518 632 534 c 0,181,182
 631 550 631 550 632 560 c 128,-1,183
 633 570 633 570 636 580 c 0,184,185
 639 589 639 589 646 595 c 128,-1,186
 653 601 653 601 664 602 c 0,187,188
 682 603 682 603 688 584 c 0,189,190
 694 564 694 564 695 530 c 128,-1,191
 696 496 696 496 699 484 c 1,192,193
 722 496 722 496 729 501 c 0,194,195
 759 520 759 520 761 521 c 0,196,197
 774 528 774 528 789 534 c 0,198,199
 806 541 806 541 815 539 c 0,200,201
 827 536 827 536 834 525 c 0,202,203
 839 517 839 517 839 508 c 0,204,205
 839 507 l 0,206,207
 839 466 839 466 728 410 c 1,208,209
 739 403 739 403 775 386 c 0,210,211
 809 369 809 369 826 353 c 0,212,213
 836 344 836 344 836 334 c 0,214,215
 837 327 837 327 832 320 c 0,216,217
 823 309 823 309 809 304 c 0,218,219
 806 303 806 303 803 303 c 0,220,221
 788 305 788 305 775 312 c 0,222,223
 763 318 763 318 740 333 c 0,224,225
 731 339 731 339 701 363 c 0,226,227
 676 383 676 383 668 389 c 1,228,-1
 533 289 l 1,229,-1
 673 201 l 1,230,231
 680 206 680 206 683 208 c 0,232,233
 706 226 706 226 725 239 c 128,-1,234
 744 252 744 252 759 259 c 0,235,236
 778 268 778 268 789 268 c 0,237,238
 790 268 790 268 792 268 c 0,239,240
 803 268 803 268 814 255 c 0,241,242
 819 249 819 249 820 241 c 0,243,244
 821 234 821 234 817 228 c 0,245,246
 815 225 815 225 807 217 c 0,247,248
 801 211 801 211 792 205 c 128,-1,249
 783 199 783 199 774 194 c 0,250,251
 759 184 759 184 754 181 c 0,252,253
 744 175 744 175 736 169 c 1,254,255
 745 164 745 164 761 158 c 0,256,257
 775 153 775 153 786 149 c 0,258,259
 801 145 801 145 810 140 c 0,260,261
 825 132 825 132 829 126 c 0,262,263
 833 121 833 121 838 107 c 0,264,265
 843 94 843 94 836 78 c 1,266,267
 833 67 833 67 827 61 c 128,-1,268
 821 55 821 55 813 55 c 0,269,270
 808 55 808 55 795 58 c 0,271,272
 791 59 791 59 775 67 c 0,273,274
 763 73 763 73 754 79 c 0,275,276
 745 84 745 84 733 92 c 0,277,278
 721 99 721 99 714 103 c 1,279,280
 713 93 713 93 712 72 c 0,281,282
 710 52 710 52 709 39 c 0,283,284
 707 26 707 26 703 12 c 128,-1,285
 699 -2 699 -2 690 -9 c 0,286,287
 682 -15 682 -15 669 -14 c 0,288,289
 662 -13 662 -13 653 -7 c 0,290,291
 646 -2 646 -2 643 9 c 0,292,293
 640 19 640 19 639 30 c 0,294,295
 638 42 638 42 639 58 c 0,296,297
 641 86 641 86 641 88 c 0,298,299
 643 102 643 102 645 118 c 0,300,301
 647 137 647 137 648 148 c 1,302,-1
 486 223 l 1,303,-1
 476 67 l 1,304,305
 493 59 493 59 503 54 c 0,306,307
 514 50 514 50 530 42 c 0,308,309
 550 33 550 33 556 29 c 0,310,311
 566 22 566 22 578 14 c 0,312,313
 588 7 588 7 596 -2 c 0,314,315
 602 -9 602 -9 607 -18 c 128,-1,316
 612 -27 612 -27 611 -36 c 0,317,318
 610 -46 610 -46 605 -54 c 0,319,320
 598 -65 598 -65 586 -66 c 0,321,322
 575 -67 575 -67 560 -60 c 0,323,324
 542 -52 542 -52 531 -44 c 0,325,326
 518 -35 518 -35 501 -24 c 0,327,328
 484 -12 484 -12 475 -7 c 1,329,330
 476 -16 476 -16 480 -36 c 0,331,332
 483 -55 483 -55 485 -65 c 0,333,334
 486 -80 486 -80 488 -93 c 0,335,336
 490 -108 490 -108 488 -118 c 0,337,338
 486 -130 486 -130 482 -138 c 0,339,340
 478 -147 478 -147 469 -151 c 128,-1,341
 460 -155 460 -155 446 -155 c 0,342,343
 427 -155 427 -155 416 -144 c 0,344,345
 404 -132 404 -132 404 -115 c 0,346,347
 404 -102 404 -102 404 -94 c 0,348,349
 404 -85 404 -85 404 -80 c 0,350,351
 404 -76 404 -76 410 -41 c 0,352,353
 414 -18 414 -18 415 -9 c 1,354,355
 404 -15 404 -15 387 -27 c 128,-1,356
 370 -39 370 -39 357 -49 c 0,357,358
 346 -57 346 -57 330 -66 c 0,359,360
 317 -73 317 -73 307 -71 c 0,361,362
 296 -69 296 -69 290 -56 c 0,363,364
 287 -49 287 -49 287 -43 c 0,365,366
 287 -36 287 -36 290 -29 c 0,367,368
 294 -18 294 -18 296 -16 c 128,-1,369
 298 -14 298 -14 307 -4 c 0,370,371
 315 4 315 4 321 8 c 0,372,373
 328 14 328 14 337 20 c 0,374,375
 348 27 348 27 355 31 c 0,376,377
 365 39 365 39 373 43 c 0,378,379
 391 51 391 51 392 52 c 0,380,381
 407 62 407 62 410 62 c 0,382,383
 411 62 411 62 418 66 c 1,384,-1
 409 227 l 1,385,-1
 250 149 l 1,386,387
 250 147 250 147 251 142 c 0,388,389
 252 135 252 135 255 105 c 0,390,391
 256 96 256 96 257 72 c 0,392,393
 259 54 259 54 257 41 c 0,394,395
 255 25 255 25 253 17 c 0,396,397
 250 6 250 6 243 -1 c 0,398,399
 238 -6 238 -6 226 -8 c 128,-1,400
 214 -10 214 -10 207 -2 c 0,401,402
 199 8 199 8 197 20 c 0,403,404
 195 35 195 35 194 50 c 0,405,406
 194 65 194 65 193 84.5 c 128,-1,407
 192 104 192 104 190 116 c 1,0,1
EndSplineSet
Validated: 1025
EndChar

StartChar: uni25CD
Encoding: 9677 9677 20
Width: 884
VWidth: 0
Flags: W
LayerCount: 2
Fore
SplineSet
442 798 m 0,0,1
 525 798 525 798 597 766 c 1,2,3
 667 737 667 737 723 681 c 0,4,5
 777 627 777 627 808 555 c 128,-1,6
 839 483 839 483 839 401 c 128,-1,7
 839 319 839 319 808 247 c 0,8,9
 776 173 776 173 723 120 c 0,10,11
 669 66 669 66 597 36 c 1,12,13
 525 4 525 4 442 4 c 0,14,15
 360 4 360 4 287 36 c 1,16,17
 215 66 215 66 160 120 c 1,18,19
 107 174 107 174 75 247 c 1,20,21
 45 319 45 319 45 401 c 128,-1,22
 45 483 45 483 75 555 c 1,23,24
 107 627 107 627 160 681 c 0,25,26
 211 733 211 733 287 766 c 0,27,28
 361 798 361 798 442 798 c 0,0,1
501 657 m 0,29,30
 463 657 463 657 414 645 c 0,31,32
 312 620 312 620 264 544 c 0,33,34
 234 497 234 497 234 442 c 0,35,36
 234 410 234 410 245 371 c 0,37,38
 267 293 267 293 332 250 c 0,39,40
 371 224 371 224 410 224 c 0,41,42
 411 224 411 224 413 224 c 0,43,44
 439 224 439 224 470 235 c 0,45,46
 524 254 524 254 554 309 c 0,47,48
 572 342 572 342 572 370 c 0,49,50
 572 371 572 371 572 373 c 0,51,52
 572 392 572 392 563 417 c 1,53,54
 547 444 547 444 509 462 c 0,55,56
 494 469 494 469 481 468 c 0,57,58
 460 467 460 467 442 455 c 1,59,60
 427 442 427 442 427 421 c 0,61,62
 427 398 427 398 449 399 c 1,63,64
 477 405 477 405 477 389 c 0,65,66
 477 375 477 375 455 365 c 0,67,68
 444 360 444 360 432 360 c 0,69,70
 419 360 419 360 405 365 c 0,71,72
 382 373 382 373 371 397 c 0,73,74
 363 414 363 414 363 432 c 0,75,76
 363 438 363 438 364 444 c 0,77,78
 368 470 368 470 381 488 c 0,79,80
 404 520 404 520 442 532 c 0,81,82
 464 539 464 539 487 539 c 0,83,84
 502 539 502 539 519 536 c 0,85,86
 557 529 557 529 587 503 c 0,87,88
 618 476 618 476 637 428 c 1,89,90
 646 401 646 401 646 372 c 0,91,92
 646 344 646 344 638 316 c 0,93,94
 621 256 621 256 583 215 c 1,95,96
 514 147 514 147 422 147 c 0,97,98
 412 147 412 147 404 148 c 0,99,100
 295 162 295 162 227 230 c 0,101,102
 169 288 169 288 152 371 c 0,103,104
 145 405 145 405 145 437 c 0,105,106
 145 487 145 487 160 531 c 0,107,108
 188 615 188 615 230 699 c 0,109,110
 231 701 231 701 233 703 c 1,111,112
 197 671 197 671 192 667 c 0,113,114
 131 618 131 618 103 549 c 1,115,116
 75 475 75 475 75 399 c 1,117,118
 79 315 79 315 102 260 c 0,119,120
 130 193 130 193 185 141 c 0,121,122
 221 107 221 107 302 72 c 0,123,124
 371 42 371 42 433 42 c 0,125,126
 437 42 437 42 441 42 c 0,127,128
 495 42 495 42 585 80 c 0,129,130
 637 102 637 102 673 148 c 0,131,132
 707 192 707 192 736 262 c 0,133,134
 757 313 757 313 757 401 c 0,135,136
 757 447 757 447 736 497 c 0,137,138
 716 545 716 545 688 570 c 1,139,140
 631 629 631 629 559 650 c 0,141,142
 535 657 535 657 501 657 c 0,29,30
EndSplineSet
Validated: 1
EndChar

StartChar: circle
Encoding: 9675 9675 21
Width: 800
VWidth: 0
Flags: W
LayerCount: 2
Fore
SplineSet
400 707 m 4,0,1
 498 707 498 707 577 660 c 132,-1,2
 656 613 656 613 705 531 c 4,3,4
 753 450 753 450 753 354 c 4,5,6
 753 256 753 256 706 177 c 132,-1,7
 659 98 659 98 577 49 c 4,8,9
 496 1 496 1 400 1 c 4,10,11
 254 1 254 1 150.5 104.5 c 132,-1,12
 47 208 47 208 47 354 c 4,13,14
 47 450 47 450 94 531 c 4,15,16
 142 612 142 612 223 659.5 c 132,-1,17
 304 707 304 707 400 707 c 4,0,1
400 663 m 4,18,19
 270 663 270 663 181 573 c 4,20,21
 91 482 91 482 91 354 c 4,22,23
 91 224 91 224 181 135 c 4,24,25
 272 45 272 45 400 45 c 4,26,27
 530 45 530 45 619 135 c 4,28,29
 709 226 709 226 709 354 c 132,-1,30
 709 482 709 482 618.5 572.5 c 132,-1,31
 528 663 528 663 400 663 c 4,18,19
EndSplineSet
Validated: 1
EndChar

StartChar: uni25D4
Encoding: 9684 9684 22
Width: 800
VWidth: 0
Flags: W
LayerCount: 2
Fore
SplineSet
400 707 m 4,0,1
 495 707 495 707 577 660 c 4,2,3
 658 613 658 613 706 531 c 4,4,5
 753 450 753 450 753 354 c 4,6,7
 753 259 753 259 706 177 c 4,8,9
 659 96 659 96 577 48 c 4,10,11
 496 1 496 1 400 1 c 4,12,13
 305 1 305 1 223 48 c 4,14,15
 142 95 142 95 94 177 c 4,16,17
 47 258 47 258 47 354 c 132,-1,18
 47 450 47 450 94 531 c 4,19,20
 141 613 141 613 222.5 660 c 132,-1,21
 304 707 304 707 400 707 c 4,0,1
400 663 m 5,22,23
 315 663 315 663 246 622 c 4,24,25
 175 580 175 580 133 509 c 132,-1,26
 91 438 91 438 91 354 c 4,27,28
 91 224 91 224 181 135 c 4,29,30
 272 45 272 45 400 45 c 4,31,32
 530 45 530 45 619 135 c 4,33,34
 709 226 709 226 709 354 c 5,35,-1
 401 354 l 5,36,-1
 400 663 l 5,22,23
EndSplineSet
Validated: 1
EndChar

StartChar: uni25D1
Encoding: 9681 9681 23
Width: 800
VWidth: 0
Flags: W
LayerCount: 2
Fore
SplineSet
400 707 m 4,0,1
 495 707 495 707 577 660 c 4,2,3
 658 613 658 613 706 531 c 4,4,5
 753 450 753 450 753 354 c 4,6,7
 753 259 753 259 706 177 c 4,8,9
 659 96 659 96 577 48 c 4,10,11
 496 1 496 1 400 1 c 4,12,13
 305 1 305 1 223 48 c 4,14,15
 142 95 142 95 94 177 c 4,16,17
 47 258 47 258 47 354 c 132,-1,18
 47 450 47 450 94 531 c 4,19,20
 141 613 141 613 222.5 660 c 132,-1,21
 304 707 304 707 400 707 c 4,0,1
400 663 m 5,22,23
 315 663 315 663 246 622 c 4,24,25
 175 580 175 580 133 509 c 132,-1,26
 91 438 91 438 91 354 c 4,27,28
 91 224 91 224 181 135 c 4,29,30
 272 45 272 45 400 45 c 5,31,-1
 400 663 l 5,22,23
EndSplineSet
Validated: 1
EndChar

StartChar: uni25D5
Encoding: 9685 9685 24
Width: 799
VWidth: 0
Flags: W
LayerCount: 2
Fore
SplineSet
94 177 m 4,0,1
 47 259 47 259 47 353 c 132,-1,2
 47 447 47 447 94 529 c 4,3,4
 141 612 141 612 223 659 c 4,5,6
 304 706 304 706 399 706 c 132,-1,7
 494 706 494 706 575 659 c 132,-1,8
 656 612 656 612 704 529 c 132,-1,9
 752 446 752 446 752 358 c 4,10,11
 752 356 752 356 752 354 c 4,12,13
 752 260 752 260 704 177 c 4,14,15
 657 95 657 95 575 48 c 4,16,17
 494 1 494 1 399 1 c 132,-1,18
 304 1 304 1 223 48 c 4,19,20
 140 97 140 97 94 177 c 4,0,1
399 657 m 5,21,22
 323 657 323 657 250 614 c 4,23,24
 100 526 100 526 100 354 c 5,25,-1
 399 354 l 5,26,-1
 399 657 l 5,21,22
EndSplineSet
Validated: 1
EndChar

StartChar: H18533
Encoding: 9679 9679 25
Width: 799
VWidth: 0
Flags: W
LayerCount: 2
Fore
SplineSet
47 354 m 4,0,1
 47 450 47 450 94 530 c 4,2,3
 143 614 143 614 223 659 c 4,4,5
 306 706 306 706 400 706 c 4,6,7
 493 706 493 706 575 659 c 4,8,9
 656 612 656 612 704 530 c 4,10,11
 752 447 752 447 752 358 c 4,12,13
 752 356 752 356 752 354 c 4,14,15
 752 260 752 260 704 177 c 4,16,17
 657 95 657 95 575 48 c 4,18,19
 494 1 494 1 399 1 c 4,20,21
 305 1 305 1 223 48 c 4,22,23
 142 96 142 96 94.5 177.5 c 132,-1,24
 47 259 47 259 47 354 c 4,0,1
EndSplineSet
Validated: 1
EndChar
